<svg width="160" height="40" viewBox="0 0 160 40" fill="none" xmlns="http://www.w3.org/2000/svg">
<path d="M30.5464 16.3167L31.0481 16.1051L31.2081 15.4278L31.3751 14.7534L32.7734 14.1579C33.7216 13.7578 34.1852 13.5798 34.1998 13.614C34.2191 13.658 34.6891 18.0586 34.6962 18.2651C34.6974 18.3225 34.8228 18.2871 35.2945 18.0882L35.8905 17.8365L36.3248 15.168L36.7614 12.5041L38.3549 11.8031C40.0772 11.0475 40.1048 11.0296 40.2349 10.6497C40.3251 10.3969 40.3193 10.2195 40.2114 9.96841C40.0778 9.65877 39.7801 9.43029 39.4461 9.39144C39.1917 9.35955 39.1917 9.35956 37.6024 10.0299L36.0183 10.6984L33.7316 9.13747L31.4501 7.57416L30.864 7.82117C30.3278 8.04732 30.2821 8.07805 30.3389 8.14125C30.3753 8.18416 31.0703 8.99422 31.8849 9.9452C32.6995 10.8962 33.3758 11.7028 33.3887 11.7323C33.4098 11.7816 33.1033 11.9283 32.0309 12.3806L30.6454 12.9651L29.9955 12.6004L29.3503 12.2339L28.8639 12.4392C28.422 12.6259 28.3816 12.6543 28.4378 12.7175C28.4742 12.7604 28.7906 13.1553 29.1487 13.5908L29.7939 14.3927L29.917 15.386C29.9826 15.9334 30.0377 16.4153 30.0424 16.4536C30.0436 16.5116 30.159 16.4803 30.5464 16.3167Z" fill="#63AB45"/>
<path d="M29.0293 15.3024L27.9803 15.8649C24.13 17.964 21.2818 19.9413 20.0101 21.4258C19.8695 21.5939 19.7464 21.7505 19.6409 21.9013C19.4358 21.6171 19.1721 21.4026 18.8029 21.4895C18.5216 21.5533 18.3223 21.7273 18.1582 21.9476C19.1838 20.3588 21.8737 18.2365 25.853 15.8939C26.5914 15.459 28.4433 14.4152 28.5956 14.3514C28.6308 14.3514 28.7304 14.5312 28.8359 14.8153L29.0293 15.3024Z" fill="#63AB45"/>
<path d="M18.8026 0.0115021C17.8357 0.139072 16.9507 0.301433 16.0658 0.73053C15.3977 1.05525 14.7414 1.49595 14.2374 2.04682C13.8271 2.49331 13.4462 2.96879 13.1708 3.51386C12.7312 4.38366 12.5613 5.28824 12.5613 6.25081C12.5613 6.55814 12.5378 6.86546 12.5964 7.16699C12.7547 8.03098 13.1122 8.85439 13.4638 9.6488C13.9854 10.8317 14.6007 11.9682 15.2219 13.099C16.0072 14.5254 16.857 15.9171 17.7067 17.3088C17.9763 17.7495 18.2928 18.5903 18.9433 18.5265C19.5528 18.4627 19.7403 17.9118 20.045 17.4711C20.7835 16.3984 21.4691 15.2677 22.1431 14.1485C22.9577 12.7916 23.7664 11.429 24.4462 10.0025C24.8447 9.16751 25.2726 8.28032 25.4249 7.35835C25.466 7.10321 25.4484 6.84227 25.4601 6.58133C25.507 5.53758 25.2784 4.48803 24.7803 3.56025C24.4814 3.00939 24.1063 2.5165 23.6668 2.06421C23.1276 1.51334 22.4771 1.06105 21.7797 0.724732C21.0882 0.394211 20.3674 0.162266 19.6055 0.0520924C19.3418 0.028898 19.0664 -0.0232896 18.8026 0.0115021Z" fill="#63AB45"/>
<path d="M6.32706 6.47128C5.82307 6.53506 5.33079 6.54086 4.83851 6.68003C3.36754 7.09173 2.08411 7.95572 1.14644 9.15024C0.595555 9.85767 0.284952 10.7333 0.13258 11.603C-0.26593 13.8529 0.361137 16.2709 2.17201 17.7902C2.71703 18.2483 3.39684 18.689 4.07665 18.9209C5.18428 19.2978 6.39153 19.3616 7.54603 19.4428C9.28658 19.5587 11.0447 19.5703 12.7911 19.5124C13.6819 19.4834 14.5727 19.495 15.4635 19.4428C15.7624 19.4254 16.0788 19.4776 16.3777 19.4196C16.8876 19.3152 17.1982 18.8107 17.0224 18.3178C16.9052 17.9873 16.6707 17.6742 16.5066 17.3611C16.1023 16.6073 15.692 15.8534 15.276 15.1054C14.2914 13.3368 13.2717 11.5451 12.0644 9.91565C11.3963 9.01687 10.7341 8.0485 9.7437 7.46864C8.89393 6.96996 8.03245 6.60464 7.04204 6.51187C6.80176 6.48287 6.55562 6.43649 6.32706 6.47128Z" fill="#63AB45"/>
<path d="M10.13 20.4748C9.84866 20.5096 9.54978 20.4806 9.26848 20.4864C8.85239 20.4922 8.4363 20.5154 8.02021 20.5328C7.28179 20.5675 6.54338 20.6313 5.81082 20.7357C5.21892 20.8169 4.61529 20.8923 4.05269 21.101C3.40218 21.3388 2.78684 21.7389 2.24768 22.1622C1.83744 22.4811 1.47996 22.8754 1.17522 23.2987C0.132058 24.7657 -0.213708 26.6503 0.126197 28.4015C0.255127 29.0683 0.448521 29.7642 0.788427 30.3614C1.04043 30.7963 1.40377 31.1906 1.76126 31.5443C3.15018 32.9302 5.16031 33.742 7.14114 33.5043C8.2136 33.3767 9.33294 32.9244 10.1768 32.2576C11.1204 31.5153 11.8295 30.4426 12.4917 29.4568C13.5232 27.9202 14.4784 26.3314 15.3692 24.7136C15.8204 23.8902 16.2658 23.061 16.723 22.2375C16.9515 21.82 17.2211 21.4141 16.9222 20.9561C16.5823 20.4284 15.715 20.5617 15.1641 20.5617C14.4022 20.5617 13.6404 20.4922 12.8785 20.4864C12.5445 20.4806 12.2046 20.498 11.8705 20.4806C11.4837 20.4632 11.0911 20.4632 10.7043 20.469C10.5168 20.4748 10.3234 20.4516 10.13 20.4748Z" fill="#63AB45"/>
<path d="M37.515 29.5034C36.3136 32.7796 32.0062 34.5482 28.8592 32.9129C28.0797 32.507 27.4175 32.0432 26.8549 31.3589C26.7201 31.1966 26.4095 30.9356 26.3802 30.7211C26.2571 30.6631 26.1809 30.5123 26.1048 30.4079C25.9114 30.147 25.718 29.8861 25.5421 29.6135C24.9151 28.6626 24.3115 27.7058 23.7254 26.7374C23.4793 26.3315 23.239 25.9198 23.0046 25.5139C22.8522 25.2588 22.7057 25.0036 22.565 24.7543C22.1783 24.0701 21.8032 23.38 21.4516 22.6842C21.2113 22.2087 20.7014 21.6404 20.9417 21.0838C21.2171 20.4343 21.9204 20.6257 22.4771 20.5735C23.2156 20.5039 23.9657 20.5329 24.7041 20.5155C25.5421 20.4923 26.3861 20.4575 27.23 20.4749C28.7302 20.5097 30.2305 20.5097 31.7249 20.6837C32.4516 20.7706 33.19 20.8576 33.8816 21.0954C34.2742 21.2345 34.6375 21.4491 34.9892 21.6694C35.5635 22.0231 36.0851 22.4464 36.5129 22.9741C36.9641 23.5192 37.304 24.1396 37.5385 24.8007L37.6967 25.311L37.7143 25.3631L37.7201 25.3863C38.0659 26.7374 37.9956 28.1987 37.515 29.5034Z" fill="#63AB45"/>
<path d="M25.4547 33.4115C25.4782 34.3393 25.3258 35.2091 24.9625 36.0731C24.7456 36.5833 24.4233 37.0472 24.0775 37.4821C23.638 38.0272 23.093 38.4969 22.4952 38.8738C21.7509 39.3435 20.9422 39.674 20.0807 39.8712C17.5431 40.451 14.6598 39.0072 13.3588 36.8327C12.6907 35.7135 12.4446 34.3683 12.5676 33.081C12.6555 32.1416 13.0892 31.2138 13.4643 30.3614C14.1617 28.7958 14.9763 27.2766 15.8495 25.8095C16.4765 24.7542 17.0978 23.6988 17.7307 22.6493C17.8596 22.4347 17.9768 22.2028 18.1292 21.994C18.1351 21.9766 18.1468 21.965 18.1585 21.9476C18.3226 21.7273 18.5218 21.5533 18.8031 21.4895C19.1724 21.4026 19.4361 21.6171 19.6412 21.9013C19.8053 22.1158 19.9342 22.3709 20.0573 22.5565C20.5085 23.2233 20.9363 23.9076 21.3583 24.5976C21.5341 24.8759 21.7041 25.1543 21.874 25.4384C22.1026 25.8095 22.3253 26.1806 22.5538 26.5459C23.2864 27.7347 23.9662 28.9814 24.5581 30.2455C24.9156 31.0109 25.2848 31.8169 25.4196 32.6519C25.4606 32.907 25.4489 33.1564 25.4547 33.4115Z" fill="#63AB45"/>
<path d="M155.92 11.8133C156.487 11.8133 156.94 12.1193 157.28 12.7312C157.643 13.3204 157.824 14.0457 157.824 14.9069C157.824 15.7454 157.552 16.6293 157.008 17.5586C156.464 18.4651 155.161 20.0516 153.099 22.3179L153.405 24.6976C153.541 25.7402 153.767 26.4994 154.084 26.9753C154.402 27.4286 154.878 27.6552 155.512 27.6552C156.147 27.6552 156.747 27.3833 157.314 26.8393C157.881 26.2728 158.3 25.5475 158.572 24.6636H160C159.297 26.7034 158.345 28.2672 157.144 29.355C155.943 30.4202 154.583 30.9528 153.065 30.9528C151.999 30.9528 151.116 30.4655 150.413 29.491C149.733 28.4938 149.234 27.0093 148.917 25.0376L144.226 30.7488H141.778L148.645 22.9978L148.101 19.1903C147.943 18.1478 147.773 17.4226 147.591 17.0146C147.41 16.584 147.149 16.3687 146.809 16.3687C146.016 16.3687 145.189 17.1393 144.328 18.6804C143.467 20.1989 142.775 22.1933 142.254 24.6636H140.826C141.551 21.1734 142.605 18.4538 143.988 16.5047C145.393 14.5556 147.013 13.5811 148.849 13.5811C149.892 13.5811 150.719 13.9324 151.331 14.6349C151.965 15.3148 152.362 16.312 152.521 17.6265L152.827 20.2102C153.846 19.0544 154.583 18.1025 155.036 17.3546C155.512 16.584 155.762 15.9041 155.784 15.3148C155.626 15.3375 155.501 15.3602 155.41 15.3828C155.342 15.3828 155.274 15.3828 155.206 15.3828C154.685 15.3828 154.288 15.2242 154.016 14.9069C153.744 14.5669 153.609 14.091 153.609 13.4791C153.609 12.9578 153.812 12.5499 154.22 12.2552C154.651 11.9606 155.218 11.8133 155.92 11.8133Z" fill="#100C08"/>
<path d="M139.235 16.7086C139.235 18.5897 138.464 20.2329 136.923 21.638C135.382 23.0205 133.546 23.7684 131.416 23.8817C131.393 24.267 131.37 24.5616 131.348 24.7656C131.348 24.9469 131.348 25.1056 131.348 25.2415C131.348 26.2841 131.518 27.0206 131.858 27.4512C132.22 27.8819 132.866 28.0972 133.795 28.0972C134.861 28.0972 135.835 27.8592 136.719 27.3833C137.626 26.8847 138.657 25.9781 139.813 24.6636H140.969C139.654 26.794 138.226 28.3805 136.685 29.423C135.144 30.4429 133.455 30.9528 131.62 30.9528C129.875 30.9528 128.549 30.4995 127.642 29.593C126.758 28.6864 126.316 27.3379 126.316 25.5475C126.316 24.2557 126.52 22.8845 126.928 21.434C127.336 19.9836 127.88 18.6917 128.56 17.5585C129.399 16.1987 130.396 15.1788 131.552 14.4989C132.73 13.7964 134.045 13.4451 135.495 13.4451C136.742 13.4451 137.671 13.717 138.283 14.261C138.917 14.7822 139.235 15.5981 139.235 16.7086ZM135.767 15.2468C134.997 15.2468 134.215 15.9381 133.421 17.3206C132.651 18.6804 132.073 20.3235 131.688 22.2499C133.002 22.1593 134.147 21.5587 135.121 20.4482C136.118 19.315 136.617 18.0458 136.617 16.6407C136.617 16.1647 136.549 15.8134 136.413 15.5868C136.277 15.3602 136.062 15.2468 135.767 15.2468Z" fill="#100C08"/>
<path d="M113.412 30.7489H108.517L113.14 9.1277L118.172 8.44778L116.506 16.3008H116.778C118.07 16.3008 119.192 15.6775 120.143 14.431C121.118 13.1845 121.605 11.836 121.605 10.3855C121.605 9.27501 121.277 8.40246 120.619 7.76787C119.962 7.13329 119.044 6.81599 117.866 6.81599C115.055 6.81599 112.823 7.5639 111.169 9.05971C109.514 10.5328 108.687 12.5386 108.687 15.0769C108.687 15.5075 108.71 15.8815 108.755 16.1988C108.823 16.5161 108.925 16.822 109.061 17.1167C109.106 17.2073 109.129 17.2753 109.129 17.3206C109.152 17.3433 109.163 17.366 109.163 17.3886C107.894 17.3886 106.965 17.128 106.375 16.6067C105.809 16.0628 105.525 15.2242 105.525 14.0911C105.525 12.9579 105.899 11.8247 106.647 10.6915C107.418 9.55831 108.483 8.53844 109.843 7.63189C110.999 6.88399 112.234 6.30606 113.548 5.89812C114.886 5.4675 116.189 5.2522 117.458 5.2522C119.838 5.2522 121.719 5.7508 123.101 6.748C124.484 7.74521 125.175 9.0597 125.175 10.6915C125.175 11.7794 124.835 12.8559 124.155 13.9211C123.498 14.9863 122.614 15.8475 121.503 16.5047C122.297 16.7314 122.886 17.128 123.271 17.6946C123.656 18.2385 123.849 18.9751 123.849 19.9043C123.849 20.4256 123.792 21.0262 123.679 21.7061C123.566 22.3633 123.316 23.3718 122.931 24.7317C122.614 25.8875 122.41 26.7147 122.319 27.2133C122.229 27.712 122.183 28.1426 122.183 28.5052C122.183 29.0264 122.297 29.4911 122.523 29.899C122.772 30.3069 123.101 30.5902 123.509 30.7489C122.852 30.9302 122.229 31.0662 121.639 31.1568C121.073 31.2702 120.574 31.3268 120.143 31.3268C119.26 31.3268 118.591 31.1342 118.138 30.7489C117.707 30.3863 117.492 29.8197 117.492 29.0491C117.492 28.6638 117.548 28.1992 117.662 27.6553C117.775 27.0887 118.002 26.1595 118.342 24.8677C118.727 23.4625 118.976 22.4426 119.09 21.8081C119.226 21.1508 119.294 20.5842 119.294 20.1083C119.294 19.3377 119.124 18.7598 118.784 18.3745C118.444 17.9892 117.934 17.7966 117.254 17.7966C117.163 17.7966 117.061 17.8079 116.948 17.8306C116.857 17.8306 116.585 17.8646 116.132 17.9326L113.412 30.7489Z" fill="#100C08"/>
<path d="M92.7517 27.2133C92.8423 27.4626 93.001 27.6553 93.2276 27.7912C93.4542 27.9272 93.7262 27.9952 94.0435 27.9952C95.4713 27.9952 96.6158 27.0773 97.4771 25.2416C98.3609 23.4058 98.8029 21.2754 98.8029 18.8504C98.8029 17.9212 98.6669 17.2186 98.3949 16.7427C98.123 16.2667 97.6924 16.0288 97.1031 16.0288C96.6952 16.0288 96.2759 16.1874 95.8453 16.5047C95.4147 16.7993 95.052 17.1959 94.7574 17.6945L92.7517 27.2133ZM90.44 38.0239L85.3066 39.2478L90.9839 12.4932H95.8793L95.3353 15.0429C95.9019 14.567 96.5139 14.2043 97.1711 13.955C97.8283 13.7057 98.5423 13.5811 99.3128 13.5811C100.673 13.5811 101.704 14.0344 102.406 14.9409C103.109 15.8475 103.46 17.1846 103.46 18.9524C103.46 22.4199 102.712 25.2869 101.217 27.5533C99.7434 29.8196 97.7037 30.9528 95.0974 30.9528C94.3721 30.9528 93.7602 30.8508 93.2616 30.6469C92.7857 30.4429 92.4344 30.1369 92.2077 29.729L90.44 38.0239Z" fill="#100C08"/>
<path d="M86.7138 9.22966C86.7138 9.97756 86.4418 10.6121 85.8979 11.1334C85.3766 11.6547 84.7421 11.9153 83.9942 11.9153C83.2462 11.9153 82.6117 11.6547 82.0904 11.1334C81.5691 10.6121 81.3085 9.97756 81.3085 9.22966C81.3085 8.48175 81.5691 7.84717 82.0904 7.32591C82.6117 6.78197 83.2462 6.51001 83.9942 6.51001C84.7421 6.51001 85.3766 6.78197 85.8979 7.32591C86.4418 7.84717 86.7138 8.48175 86.7138 9.22966ZM78.0449 26.8734C78.0449 26.5787 78.0676 26.2501 78.1129 25.8875C78.1582 25.5022 78.2262 25.0943 78.3169 24.6637L80.6286 13.7511H85.524L83.0763 25.3096C83.0309 25.5135 82.9969 25.7062 82.9743 25.8875C82.9516 26.0461 82.9403 26.2161 82.9403 26.3974C82.9403 26.8507 83.0423 27.1793 83.2462 27.3833C83.4729 27.5646 83.8355 27.6553 84.3341 27.6553C84.9687 27.6553 85.5693 27.3833 86.1359 26.8394C86.7025 26.2728 87.1217 25.5475 87.3937 24.6637H88.8215C88.0963 26.7261 87.1217 28.2899 85.8979 29.355C84.6741 30.4202 83.2689 30.9528 81.6824 30.9528C80.5493 30.9528 79.654 30.6016 78.9968 29.899C78.3622 29.1737 78.0449 28.1652 78.0449 26.8734Z" fill="#100C08"/>
<path d="M67.786 30.7489H62.8906L66.4942 13.7511H71.3895L70.9476 15.8588C71.9448 15.0203 72.7267 14.465 73.2933 14.193C73.8825 13.8984 74.4718 13.7511 75.061 13.7511C75.7636 13.7511 76.3302 14.0004 76.7608 14.499C77.1914 14.9749 77.4067 15.5755 77.4067 16.3008C77.4067 17.0033 77.1801 17.5926 76.7268 18.0685C76.2736 18.5445 75.6843 18.7824 74.9591 18.7824C74.5738 18.7824 74.2678 18.6918 74.0412 18.5105C73.8372 18.3292 73.6899 17.9552 73.5992 17.3886C73.5312 17.026 73.4519 16.7994 73.3613 16.7087C73.2706 16.5954 73.146 16.5387 72.9873 16.5387C72.602 16.5387 72.2394 16.6181 71.8995 16.7767C71.5595 16.9354 71.0949 17.2866 70.5056 17.8306L67.786 30.7489Z" fill="#100C08"/>
<path d="M67.2954 6.06815C67.9753 6.06815 68.6665 6.01149 69.3691 5.89818C70.0717 5.76219 70.6949 5.58088 71.2389 5.35425C71.2162 6.80472 70.8422 7.89258 70.117 8.61782C69.4144 9.3204 68.3719 9.67169 66.9894 9.67169C66.3322 9.67169 65.5956 9.61503 64.7797 9.50171C63.9865 9.38839 62.9666 9.19575 61.7201 8.92378L57.0287 30.749H52.1333L56.9607 8.24387H56.5528C54.3544 8.24387 52.7339 8.81046 51.6914 9.94365C50.6715 11.0542 50.1616 12.7766 50.1616 15.111C50.1616 15.5416 50.1843 15.9155 50.2296 16.2328C50.2976 16.5501 50.3996 16.8561 50.5355 17.1507C50.5809 17.2414 50.6035 17.3094 50.6035 17.3547C50.6262 17.3774 50.6375 17.4 50.6375 17.4227C49.3684 17.4227 48.4391 17.162 47.8499 16.6408C47.2833 16.0969 47 15.2583 47 14.1251C47 11.4281 48.0085 9.2864 50.0256 7.69994C52.0653 6.09082 54.921 5.28625 58.5925 5.28625C59.3404 5.28625 60.0543 5.32025 60.7342 5.38824C61.4368 5.43357 62.332 5.53556 63.4199 5.6942C64.3717 5.85285 65.1083 5.95483 65.6296 6.00016C66.1735 6.04549 66.7288 6.06815 67.2954 6.06815Z" fill="#100C08"/>
</svg>
